<svg width="100" height="100" viewBox="0 0 100 100" fill="none" xmlns="http://www.w3.org/2000/svg">
<rect width="100" height="100" rx="16" fill="#C8DAE9"/>
<path fill-rule="evenodd" clip-rule="evenodd" d="M18 22.5475C18 20.036 20.036 18 22.5474 18H41.8741C44.3857 18 46.4216 20.036 46.4216 22.5475V41.8742C46.4216 44.3856 44.3857 46.4216 41.8741 46.4216H22.5474C20.036 46.4216 18 44.3856 18 41.8742V22.5475ZM22.5475 53.3405C20.036 53.3405 18 55.3765 18 57.888V77.2148C18 79.726 20.036 81.7623 22.5475 81.7623H41.8741C44.3857 81.7623 46.4216 79.726 46.4216 77.2148V57.888C46.4216 55.3765 44.3857 53.3405 41.8741 53.3405H22.5475ZM57.888 53.3405C55.3764 53.3405 53.3405 55.3765 53.3405 57.888V77.2148C53.3405 79.726 55.3764 81.7623 57.888 81.7623H77.2145C79.7262 81.7623 81.7621 79.726 81.7621 77.2148V57.888C81.7621 55.3765 79.7262 53.3405 77.2145 53.3405H57.888Z" fill="#303C4F"/>
<path fill-rule="evenodd" clip-rule="evenodd" d="M70.6538 20.8791C69.7927 17.1025 64.4044 17.126 63.5762 20.91L63.5447 21.0544L63.4832 21.3345C62.58 25.3791 59.3274 28.4827 55.2416 29.1936C51.2997 29.8794 51.2997 35.5381 55.2416 36.2239C59.3416 36.9372 62.6026 40.0601 63.4926 44.1255L63.5762 44.5074C64.4044 48.2915 69.7927 48.3151 70.6538 44.5384L70.7556 44.0933C71.6791 40.0425 74.9452 36.9424 79.0385 36.2302C82.9872 35.5432 82.9872 29.8743 79.0385 29.1873C74.9669 28.4789 71.7138 25.4078 70.7704 21.3887C70.744 21.2764 70.7195 21.169 70.6932 21.052L70.6538 20.8791Z" fill="#8965F6"/>
</svg>
